<?xml version="1.0" encoding="UTF-8" standalone="no"?>
<!DOCTYPE svg PUBLIC "-//W3C//DTD SVG 20010904//EN"
              "http://www.w3.org/TR/2001/REC-SVG-20010904/DTD/svg10.dtd">

<svg xmlns="http://www.w3.org/2000/svg"
     width="15.5833in" height="12in"
     viewBox="0 0 1122 864">
  <path id="MalarkeyPath"
        fill="none" stroke="black" stroke-width="1"
        d="M 100.67,443.33
           C 100.67,443.33 210.33,465.67 210.33,465.67
             210.33,465.67 221.33,477.00 221.33,477.00
             221.33,477.00 286.67,475.00 286.67,475.00
             286.67,475.00 300.00,463.33 300.00,463.33
             300.00,463.33 403.67,439.67 403.67,439.67
             403.67,439.67 422.00,511.00 422.00,511.00
             422.00,511.00 399.67,522.00 399.67,522.00
             399.67,522.00 437.00,577.00 437.00,577.00
             437.00,577.00 474.33,579.00 474.33,579.00
             474.33,579.00 575.67,664.33 575.67,664.33
             575.67,664.33 570.67,676.00 570.67,676.00
             570.67,676.00 442.33,692.67 442.33,692.67
             442.33,692.67 410.00,683.00 410.00,683.00
             410.00,683.00 342.00,714.00 342.00,714.00
             342.00,714.00 349.00,735.33 349.00,735.33
             349.00,735.33 247.67,830.67 247.67,830.67
             247.67,830.67 235.00,824.67 235.00,824.67
             235.00,824.67 168.00,728.33 168.00,728.33
             168.00,728.33 183.33,702.00 183.33,702.00
             183.33,702.00 154.00,689.33 154.00,689.33
             154.00,689.33 127.67,668.67 127.67,668.67
             127.67,668.67 92.00,675.33 92.00,675.33
             92.00,675.33 0.33,650.67 0.33,650.67
             0.33,650.67 1.00,611.00 1.00,611.00
             1.00,611.00 59.33,568.00 59.33,568.00
             59.33,568.00 89.33,560.67 89.33,560.67
             89.33,560.67 117.00,518.33 117.00,518.33
             117.00,518.33 97.00,508.00 97.00,508.00
             97.00,508.00 100.67,443.33 100.67,443.33 Z" />
</svg>
